PathFileType	4	(X/Y/Z)	Patient4_TMGait_0pt8_01_right_04.trc.trc
DataRate	CameraRate	NumFrames	NumMarkers	Units	OrigDataRate	OrigDataStartFrame	OrigNumFrames
86.956521739130	86.956521739130	6	33	mm	86.956521739130	124	       141
Frame#	Time	Sacral			L.Shoulder			Chest			R.Shoulder			Neck			R.ASIS			L.ASIS			R.Thigh.Superior			R.Thigh.Lateral			R.Thigh.Inferior			R.Patella			L.Thigh.Superior			L.Thigh.Lateral			L.Thigh.Inferior			L.Patella			L.Shank.Superior			L.Shank.Lateral			L.Shank.Inferior			R.Shank.Superior			R.Shank.Lateral			R.Shank.Inferior			R.Heel			R.Midfoot.Superior			R.Midfoot.Lateral			R.Toe			L.Heel			L.Midfoot.Lateral			L.Midfoot.Superior			L.Toe			L.Elbow			L.Wrist			R.Elbow			R.Wrist			
		X1	Y1	Z1	X2	Y2	Z2	X3	Y3	Z3	X4	Y4	Z4	X5	Y5	Z5	X6	Y6	Z6	X7	Y7	Z7	X8	Y8	Z8	X9	Y9	Z9	X10	Y10	Z10	X11	Y11	Z11	X12	Y12	Z12	X13	Y13	Z13	X14	Y14	Z14	X15	Y15	Z15	X16	Y16	Z16	X17	Y17	Z17	X18	Y18	Z18	X19	Y19	Z19	X20	Y20	Z20	X21	Y21	Z21	X22	Y22	Z22	X23	Y23	Z23	X24	Y24	Z24	X25	Y25	Z25	X26	Y26	Z26	X27	Y27	Z27	X28	Y28	Z28	X29	Y29	Z29	X30	Y30	Z30	X31	Y31	Z31	X32	Y32	Z32	X33	Y33	Z33	

124	5.574500000000	821.560492755196	983.794217785978	444.336427926908	1018.991417827079	1415.085096459055	285.359698851136	1094.151027760094	1347.041999559832	461.634442269203	981.599748746639	1418.812659490161	619.541331417905	979.322284209507	1475.799475856893	439.579098960692	1038.335928542356	923.825523631565	585.449802955238	1049.385426408831	944.683953592416	309.344305115524	1115.579569808504	753.452590148793	563.136259868310	1064.999460074913	626.884201391110	627.942906706372	1162.359790327738	595.327034871261	557.036768694153	1193.818914656302	515.627781870951	569.793716686604	1036.770121052277	715.627349812043	335.465925532158	912.968702052327	627.468023350567	271.048036106089	963.705776121894	530.299671638770	338.478944693237	944.329076681451	463.260058811773	347.557941860138	903.949944001624	400.775399538889	340.485374669021	794.274872156684	304.476308107044	289.676842555163	821.235203150201	187.244676777470	364.648332414698	1185.821455872892	425.579768072484	577.548964674643	1137.286893334005	307.175099090234	634.755805345113	1215.654115920033	227.874617380823	586.453180688208	1137.213485216515	40.379766380633	552.498448518901	1293.588859217467	119.350965846407	598.014890924548	1217.871249810261	42.289471212435	629.871348360434	1418.231104787257	88.166790473151	630.741320573876	672.977558949433	43.770911532632	412.123392163310	745.897985123449	36.390881574717	331.409180001429	831.261122728621	95.777741135994	356.480305558954	957.656730239235	40.388208006157	327.329813031957	1126.775971656157	1112.502961347893	119.907113676419	1379.303026249463	1092.876702760250	164.076625680787	793.275361077606	1133.529385278430	713.735891364442	719.810186205045	884.578688018235	736.072977541048	
125	5.586000000000	823.562753892686	982.258726881872	447.628954837563	1018.626196227245	1413.728369143611	287.083031290437	1094.855216393168	1346.423238755413	463.134200147485	982.698091416058	1417.954304411698	621.492732408041	979.622133630169	1474.634471691689	441.451109530452	1041.327429974356	922.555454114224	587.443688677299	1050.958684534667	943.245383049158	311.297783357907	1118.712894909751	751.666612855183	564.280242846771	1067.049143270345	625.149403661251	627.984088202255	1163.816423800562	593.538815726430	556.541508850997	1194.307529120869	512.946415475662	568.396087169653	1038.215504246266	714.178752410576	336.724746038553	913.687111120195	626.478734756486	273.020740018636	964.689072433021	528.660482611975	339.633253771081	944.929663070335	460.843333003581	348.481089690860	902.617179980704	398.997013892027	341.415131104286	790.381786476988	305.555759933938	290.550371616597	814.810869962230	187.219562423528	364.549217490356	1185.481739341002	422.428307519697	576.358538606453	1135.722070414331	304.662670983863	633.667887615444	1212.116135427840	224.339276251716	584.489358097803	1129.406517999983	39.946104590674	551.388007964635	1288.073114566679	114.907769025659	594.948604831541	1210.472979707694	40.680835478612	628.350249232367	1412.111842881182	80.590454273220	627.108810113519	663.847537456196	45.930992845250	411.471183640908	736.854103604358	37.105112709076	331.089760630397	822.789312516151	96.013014978475	355.922491175311	948.559303727270	39.883648721735	327.266496095866	1127.116891047243	1110.826692113037	122.501800184907	1379.459924396814	1099.413917850417	168.189061667177	792.983020062487	1134.270434791259	715.691495324203	717.213419874374	885.865939056839	737.390759566293	
126	5.597500000000	825.598052535486	981.127910817814	451.034941410501	1018.400184765948	1412.686794726517	288.866558048959	1095.696168614504	1346.120123449828	464.692838301164	983.969206755132	1417.406231870731	623.538046840746	980.051073229750	1473.826170115685	443.381975403597	1044.346632934997	921.734972319975	589.597952125212	1052.558735760304	942.094578515321	313.434041812614	1121.999917046094	750.454166295655	565.361888294125	1069.540303196336	624.117478916075	628.247922264170	1165.533081760377	592.344488601222	556.091854617731	1195.081090298740	510.688566861053	567.313927251435	1039.860446125012	713.023974425816	338.091107781795	914.735815943755	625.621693477853	275.154223614777	966.318337291780	527.179033553229	340.787791740024	946.260894080480	458.455777763381	349.264337320671	901.837754766839	397.329338861093	342.270495325878	786.899422527577	307.031832570055	291.492581648154	808.716929075624	187.520303287962	364.339878422555	1185.223901010989	419.708822595897	575.475973754278	1134.109836240277	302.704572287794	633.093166166031	1208.158705672466	221.154429823247	582.875414787882	1120.584049203255	39.936852739788	550.647996563566	1281.725187648639	110.655907780853	592.263069982747	1202.118626676269	39.310681860772	627.164554325930	1405.113918547193	72.979738437854	623.696245938170	654.836410330804	48.821544230617	410.771257826794	727.840196798153	38.150008761506	330.742052565099	814.566533723613	96.333461869211	355.202304252184	939.435369624410	39.415485542039	327.194414822021	1126.896597030615	1108.986394729405	125.356270476147	1378.900481577424	1104.774854435481	172.282328532770	793.923202116515	1134.355713335241	717.703623846917	716.423834195758	886.322788093717	738.869668042641	
127	5.609000000000	827.644182097425	980.456497436564	454.516572804152	1018.349495640745	1412.023852824206	290.706834711805	1096.677550646590	1346.167286792509	466.311766467283	985.402429317359	1417.211640786035	625.657177253070	980.614886336506	1473.423581726494	445.353065195848	1047.341685864022	921.413683205885	591.912267244673	1054.156565180501	941.300192735184	315.758635132464	1125.336258980126	749.841296125947	566.402749715525	1072.376863908752	623.807967437862	628.819190097064	1167.420984556570	591.733027812219	555.803299565296	1196.030728056735	508.906611348409	566.683359277121	1041.687229491525	712.216820137661	339.608267279514	916.187418667229	624.892526999978	277.416971653328	968.691344824902	525.888610500465	341.938923282709	948.420618711011	456.126399152470	349.864235454071	901.714682793696	395.799815310875	343.012622000390	783.946829661655	308.954807383577	292.485689230673	803.069403225317	188.211247554382	364.009733746133	1184.998674162076	417.503368576572	574.989268473959	1132.486971494539	301.342962357754	633.094918557605	1203.917206873283	218.450967978353	581.690151141873	1111.212683583733	40.233134909315	550.260319972781	1274.769627056385	106.873997529007	590.112070714495	1193.211926130017	38.232568585156	626.356058065147	1397.511223240981	65.933825564853	620.756544273947	646.038871177773	52.596173961737	410.042826152222	718.902536222768	39.641741800859	330.377758594787	806.676409642357	96.761326517839	354.318146952902	930.285011650785	38.998792455829	327.123624014774	1126.082142746648	1107.031543192998	128.471352677195	1377.688291117171	1108.901136591693	176.341659893524	796.078102537849	1133.826302901184	719.795369424021	717.503561644641	885.964368254598	740.549194048211	
128	5.620500000000	829.680085418715	980.269194161809	458.051606502328	1018.485896467454	1411.783680464294	292.599698291532	1097.791911725265	1346.579819004765	467.986153938986	986.985418708158	1417.398404194174	627.827031136477	981.304816740988	1473.451792532133	447.346792341352	1050.267260844761	921.606675596620	594.379339244655	1055.713760282821	940.914819891734	318.266194213333	1128.612715913027	749.806535426084	567.442752810504	1075.416790329355	624.174193747941	629.750865481503	1169.363819389907	591.636937628693	555.782024608746	1197.006772328300	507.593601089352	566.589909531300	1043.708938095990	711.797272650746	341.314393664631	918.154756366371	624.268430556322	279.771397407281	971.941251813990	524.808833490477	343.082537563438	951.539261883857	453.877119885326	350.250517899123	902.392398781219	394.423028119089	343.611699961375	781.689500901739	311.361278032517	293.510503455816	798.016961115546	189.352255448714	363.560498972369	1184.703564659063	415.824884082556	574.938743280242	1130.798160942052	300.557065257066	633.659785869248	1199.439014343505	216.286430013818	580.955698296079	1101.635816162975	40.709630681836	550.172649158276	1267.353629421016	103.749305636025	588.576933329875	1184.043953511894	37.462273896086	625.919583487603	1389.494025687910	59.894612916417	618.459103739225	637.587212593595	57.420461670468	409.306497522843	710.119485843096	41.726108628770	330.009652226167	799.220202128020	97.334006058745	353.284281584704	921.120833294022	38.636556095397	327.065190661486	1124.644369001327	1105.018849179019	131.847408754009	1375.876842470308	1111.739966310340	180.355163432632	799.397642053058	1132.760764209606	721.988693015849	720.510680639118	884.839638643468	742.458186261005	
129	5.632000000000	831.685172266843	980.557126858394	461.633886909923	1018.791677978305	1411.983933884260	294.540470184692	1099.019946450609	1347.349666844879	469.703928606479	988.706026486598	1417.974000587033	630.023724342581	982.096984141790	1473.907182369819	449.349553644834	1053.088515043266	922.292567351778	596.983388769403	1057.184267684251	940.967143447177	320.939239324622	1131.717306054047	750.269022842149	568.542070225595	1078.460925138806	625.098900439103	631.056024916814	1171.210965260468	591.932462762017	556.113018590142	1197.822129281335	506.684476493902	567.052105938267	1045.967579157595	711.787388945403	343.234366046809	920.776278171142	623.713959170508	282.174921745361	976.216451476247	523.947734824131	344.214215432059	955.763168164475	451.727519256810	350.412170972521	904.040640063001	393.204293643503	344.053878473434	780.327769831939	314.272304785309	294.547450132943	793.731584246321	190.999101881667	363.008650274160	1184.190976336962	414.621947359815	575.313503706334	1128.914623861983	300.265656374930	634.700695854429	1194.704287167431	214.646929309978	580.641474849910	1092.073762486345	41.253223278445	550.313723465390	1259.569851212320	101.362144628418	587.660054073619	1174.802047030766	36.979822406813	625.810315792790	1381.188187775016	55.101906806592	616.869471451208	629.653214266344	63.465874274004	408.582743427309	701.606692589463	44.577624748337	329.650176977211	792.313889890630	98.110231138029	352.133039751369	911.971330410148	38.316073490254	327.028848058199	1122.559842508441	1103.008303591780	135.482321654122	1373.505314028305	1113.241128861877	184.313119998807	803.804473316534	1131.264815523753	724.301463343649	725.495012122077	883.028773880805	744.613375405564	
